<svg width="242" height="19" viewBox="0 0 242 19" fill="none" xmlns="http://www.w3.org/2000/svg">
<path d="M2.84091 9.81818C2.84091 8.42614 3.72159 7.63068 4.93182 7.63068C6.10227 7.63068 6.80114 8.375 6.80114 9.65341V15H8.5V9.44886C8.5 7.27273 7.30682 6.15909 5.51136 6.15909C4.15341 6.15909 3.33523 6.75 2.92614 7.69318H2.81818V3.36364H1.14205V15H2.84091V9.81818ZM13.8884 15.1761C15.7918 15.1761 17.1384 14.2386 17.5248 12.8182L15.9168 12.5284C15.61 13.3523 14.8714 13.7727 13.9055 13.7727C12.4509 13.7727 11.4736 12.8295 11.4282 11.1477H17.6327V10.5455C17.6327 7.39205 15.7464 6.15909 13.7691 6.15909C11.3373 6.15909 9.735 8.01136 9.735 10.6932C9.735 13.4034 11.3145 15.1761 13.8884 15.1761ZM11.4339 9.875C11.502 8.63636 12.3998 7.5625 13.7805 7.5625C15.0986 7.5625 15.9623 8.53977 15.968 9.875H11.4339ZM20.5765 3.36364H18.8777V15H20.5765V3.36364ZM23.9209 3.36364H22.222V15H23.9209V3.36364ZM29.2426 15.1761C31.7028 15.1761 33.3107 13.375 33.3107 10.6761C33.3107 7.96023 31.7028 6.15909 29.2426 6.15909C26.7823 6.15909 25.1744 7.96023 25.1744 10.6761C25.1744 13.375 26.7823 15.1761 29.2426 15.1761ZM29.2482 13.75C27.6403 13.75 26.8903 12.3466 26.8903 10.6705C26.8903 9 27.6403 7.57955 29.2482 7.57955C30.8448 7.57955 31.5948 9 31.5948 10.6705C31.5948 12.3466 30.8448 13.75 29.2482 13.75ZM41.5727 18.1648C42.8852 18.1648 44.4023 17.8068 45.1068 17.4773L44.7091 16.233C44.2318 16.4034 42.9193 16.8182 41.6466 16.8182C37.8227 16.8182 35.7716 14.7102 35.7716 10.9375C35.7716 7.32386 37.8 4.98864 41.4364 4.98864C44.7602 4.98864 46.7432 7.125 46.7375 10.0114C46.7432 12.4773 46.425 13.5852 45.3909 13.5852C44.8057 13.5852 44.4818 13.108 44.4818 12.5114V7.23864H43.0841V7.875H43.0102C42.8398 7.375 41.8511 6.92614 40.6636 7.06818C39.0216 7.26136 37.6125 8.61932 37.6125 10.858C37.6125 13.1932 38.8057 14.7557 40.7205 14.8295C42.0159 14.8864 42.8568 14.2841 43.1239 13.6136H43.192C43.3284 14.5284 44.317 14.9318 45.2886 14.8977C47.7148 14.8523 48.175 12.4659 48.175 10.0682C48.175 6.64773 45.8341 3.67045 41.4932 3.67045C36.942 3.67045 34.2659 6.44886 34.2602 10.9261C34.2659 15.5341 36.8739 18.1648 41.5727 18.1648ZM41.05 13.4375C39.567 13.4375 39.0557 12.1648 39.05 10.7898C39.0557 9.48295 39.7886 8.44318 41.0727 8.44318C42.4648 8.44318 43.0898 9.05682 43.0955 10.7841C43.1011 12.5568 42.5273 13.4375 41.05 13.4375ZM51.9512 15.1932C53.3944 15.1932 54.2069 14.4602 54.5307 13.8068H54.5989V15H56.258V9.20455C56.258 6.66477 54.258 6.15909 52.8716 6.15909C51.2921 6.15909 49.8376 6.79545 49.2694 8.38636L50.866 8.75C51.116 8.13068 51.7523 7.53409 52.8944 7.53409C53.991 7.53409 54.5535 8.10795 54.5535 9.09659V9.13636C54.5535 9.75568 53.9171 9.74432 52.3489 9.92614C50.6955 10.1193 49.0023 10.5511 49.0023 12.5341C49.0023 14.25 50.2921 15.1932 51.9512 15.1932ZM52.3205 13.8295C51.3603 13.8295 50.6671 13.3977 50.6671 12.5568C50.6671 11.6477 51.4739 11.3239 52.4569 11.1932C53.008 11.1193 54.3148 10.9716 54.5591 10.7273V11.8523C54.5591 12.8864 53.7353 13.8295 52.3205 13.8295ZM59.5797 3.36364H57.8808V15H59.5797V3.36364ZM62.924 3.36364H61.2252V15H62.924V3.36364ZM67.1093 15.1932C68.5525 15.1932 69.365 14.4602 69.6889 13.8068H69.757V15H71.4161V9.20455C71.4161 6.66477 69.4161 6.15909 68.0298 6.15909C66.4502 6.15909 64.9957 6.79545 64.4275 8.38636L66.0241 8.75C66.2741 8.13068 66.9105 7.53409 68.0525 7.53409C69.1491 7.53409 69.7116 8.10795 69.7116 9.09659V9.13636C69.7116 9.75568 69.0752 9.74432 67.507 9.92614C65.8536 10.1193 64.1605 10.5511 64.1605 12.5341C64.1605 14.25 65.4502 15.1932 67.1093 15.1932ZM67.4786 13.8295C66.5184 13.8295 65.8252 13.3977 65.8252 12.5568C65.8252 11.6477 66.632 11.3239 67.615 11.1932C68.1661 11.1193 69.473 10.9716 69.7173 10.7273V11.8523C69.7173 12.8864 68.8934 13.8295 67.4786 13.8295ZM73.1753 15H74.8344V13.642H74.9764C75.2832 14.1989 75.9082 15.1705 77.4991 15.1705C79.6128 15.1705 81.1469 13.4773 81.1469 10.6534C81.1469 7.82386 79.5901 6.15909 77.4821 6.15909C75.8628 6.15909 75.2776 7.14773 74.9764 7.6875H74.8741V3.36364H73.1753V15ZM74.8401 10.6364C74.8401 8.8125 75.6355 7.60227 77.1185 7.60227C78.6582 7.60227 79.431 8.90341 79.431 10.6364C79.431 12.3864 78.6355 13.7216 77.1185 13.7216C75.6582 13.7216 74.8401 12.4716 74.8401 10.6364ZM86.0907 15.1761C88.5509 15.1761 90.1589 13.375 90.1589 10.6761C90.1589 7.96023 88.5509 6.15909 86.0907 6.15909C83.6305 6.15909 82.0225 7.96023 82.0225 10.6761C82.0225 13.375 83.6305 15.1761 86.0907 15.1761ZM86.0964 13.75C84.4884 13.75 83.7384 12.3466 83.7384 10.6705C83.7384 9 84.4884 7.57955 86.0964 7.57955C87.693 7.57955 88.443 9 88.443 10.6705C88.443 12.3466 87.693 13.75 86.0964 13.75ZM93.9549 15.1932C95.3981 15.1932 96.2106 14.4602 96.5345 13.8068H96.6027V15H98.2618V9.20455C98.2618 6.66477 96.2618 6.15909 94.8754 6.15909C93.2959 6.15909 91.8413 6.79545 91.2731 8.38636L92.8697 8.75C93.1197 8.13068 93.7561 7.53409 94.8981 7.53409C95.9947 7.53409 96.5572 8.10795 96.5572 9.09659V9.13636C96.5572 9.75568 95.9209 9.74432 94.3527 9.92614C92.6993 10.1193 91.0061 10.5511 91.0061 12.5341C91.0061 14.25 92.2959 15.1932 93.9549 15.1932ZM94.3243 13.8295C93.364 13.8295 92.6709 13.3977 92.6709 12.5568C92.6709 11.6477 93.4777 11.3239 94.4606 11.1932C95.0118 11.1193 96.3186 10.9716 96.5629 10.7273V11.8523C96.5629 12.8864 95.739 13.8295 94.3243 13.8295ZM103.958 6.27273H102.169V4.18182H100.47V6.27273H99.1914V7.63636H100.47V12.7898C100.464 14.375 101.674 15.142 103.015 15.1136C103.555 15.108 103.919 15.0057 104.118 14.9318L103.811 13.5284C103.697 13.5511 103.487 13.6023 103.214 13.6023C102.663 13.6023 102.169 13.4205 102.169 12.4375V7.63636H103.958V6.27273ZM108.865 15.1761C110.769 15.1761 112.115 14.2386 112.502 12.8182L110.894 12.5284C110.587 13.3523 109.848 13.7727 108.882 13.7727C107.428 13.7727 106.451 12.8295 106.405 11.1477H112.61V10.5455C112.61 7.39205 110.723 6.15909 108.746 6.15909C106.314 6.15909 104.712 8.01136 104.712 10.6932C104.712 13.4034 106.291 15.1761 108.865 15.1761ZM106.411 9.875C106.479 8.63636 107.377 7.5625 108.757 7.5625C110.076 7.5625 110.939 8.53977 110.945 9.875H106.411ZM120.394 8.40341C120.042 7.04545 118.98 6.15909 117.093 6.15909C115.122 6.15909 113.724 7.19886 113.724 8.74432C113.724 9.98295 114.474 10.8068 116.11 11.1705L117.588 11.4943C118.428 11.6818 118.82 12.0568 118.82 12.6023C118.82 13.2784 118.099 13.8068 116.985 13.8068C115.968 13.8068 115.315 13.3693 115.11 12.5114L113.468 12.7614C113.752 14.3068 115.036 15.1761 116.997 15.1761C119.105 15.1761 120.565 14.0568 120.565 12.4773C120.565 11.2443 119.781 10.483 118.178 10.1136L116.792 9.79545C115.832 9.56818 115.417 9.24432 115.423 8.65341C115.417 7.98295 116.144 7.50568 117.11 7.50568C118.167 7.50568 118.656 8.09091 118.855 8.67614L120.394 8.40341ZM125.452 18.4545C127.673 18.4545 129.389 17.4375 129.389 15.1932V6.27273H127.724V7.6875H127.599C127.298 7.14773 126.696 6.15909 125.071 6.15909C122.963 6.15909 121.412 7.82386 121.412 10.6023C121.412 13.3864 122.997 14.8693 125.06 14.8693C126.662 14.8693 127.281 13.9659 127.588 13.4091H127.696V15.125C127.696 16.4943 126.759 17.0852 125.469 17.0852C124.054 17.0852 123.503 16.375 123.202 15.875L121.742 16.4773C122.202 17.5455 123.367 18.4545 125.452 18.4545ZM125.435 13.4602C123.918 13.4602 123.128 12.2955 123.128 10.5795C123.128 8.90341 123.901 7.60227 125.435 7.60227C126.918 7.60227 127.713 8.8125 127.713 10.5795C127.713 12.3807 126.901 13.4602 125.435 13.4602ZM134.704 15.1761C137.164 15.1761 138.772 13.375 138.772 10.6761C138.772 7.96023 137.164 6.15909 134.704 6.15909C132.244 6.15909 130.636 7.96023 130.636 10.6761C130.636 13.375 132.244 15.1761 134.704 15.1761ZM134.709 13.75C133.102 13.75 132.352 12.3466 132.352 10.6705C132.352 9 133.102 7.57955 134.709 7.57955C136.306 7.57955 137.056 9 137.056 10.6705C137.056 12.3466 136.306 13.75 134.709 13.75ZM145.557 11.3807C145.562 12.8636 144.46 13.5682 143.506 13.5682C142.454 13.5682 141.727 12.8068 141.727 11.6193V6.27273H140.028V11.8239C140.028 13.9886 141.216 15.1136 142.892 15.1136C144.204 15.1136 145.096 14.4205 145.5 13.4886H145.591V15H147.261V6.27273H145.557V11.3807ZM152.171 15.1705C153.762 15.1705 154.387 14.1989 154.694 13.642H154.836V15H156.495V3.36364H154.796V7.6875H154.694C154.387 7.14773 153.807 6.15909 152.182 6.15909C150.074 6.15909 148.523 7.82386 148.523 10.6534C148.523 13.4773 150.052 15.1705 152.171 15.1705ZM152.546 13.7216C151.029 13.7216 150.239 12.3864 150.239 10.6364C150.239 8.90341 151.012 7.60227 152.546 7.60227C154.029 7.60227 154.824 8.8125 154.824 10.6364C154.824 12.4716 154.012 13.7216 152.546 13.7216ZM158.28 15H159.978V9.67045C159.978 8.52841 160.859 7.70455 162.064 7.70455C162.416 7.70455 162.814 7.76705 162.95 7.80682V6.18182C162.78 6.15909 162.444 6.14205 162.228 6.14205C161.206 6.14205 160.331 6.72159 160.012 7.65909H159.922V6.27273H158.28V15ZM167.229 15.1761C169.132 15.1761 170.479 14.2386 170.865 12.8182L169.257 12.5284C168.951 13.3523 168.212 13.7727 167.246 13.7727C165.792 13.7727 164.814 12.8295 164.769 11.1477H170.973V10.5455C170.973 7.39205 169.087 6.15909 167.11 6.15909C164.678 6.15909 163.076 8.01136 163.076 10.6932C163.076 13.4034 164.655 15.1761 167.229 15.1761ZM164.774 9.875C164.843 8.63636 165.74 7.5625 167.121 7.5625C168.439 7.5625 169.303 8.53977 169.309 9.875H164.774ZM174.758 15.1932C176.201 15.1932 177.014 14.4602 177.338 13.8068H177.406V15H179.065V9.20455C179.065 6.66477 177.065 6.15909 175.679 6.15909C174.099 6.15909 172.644 6.79545 172.076 8.38636L173.673 8.75C173.923 8.13068 174.559 7.53409 175.701 7.53409C176.798 7.53409 177.36 8.10795 177.36 9.09659V9.13636C177.36 9.75568 176.724 9.74432 175.156 9.92614C173.502 10.1193 171.809 10.5511 171.809 12.5341C171.809 14.25 173.099 15.1932 174.758 15.1932ZM175.127 13.8295C174.167 13.8295 173.474 13.3977 173.474 12.5568C173.474 11.6477 174.281 11.3239 175.264 11.1932C175.815 11.1193 177.122 10.9716 177.366 10.7273V11.8523C177.366 12.8864 176.542 13.8295 175.127 13.8295ZM186.216 11.3807C186.222 12.8636 185.119 13.5682 184.165 13.5682C183.114 13.5682 182.387 12.8068 182.387 11.6193V6.27273H180.688V11.8239C180.688 13.9886 181.875 15.1136 183.551 15.1136C184.864 15.1136 185.756 14.4205 186.159 13.4886H186.25V15H187.921V6.27273H186.216V11.3807ZM190.683 15.108C191.302 15.108 191.819 14.6023 191.819 13.9716C191.819 13.3523 191.302 12.8409 190.683 12.8409C190.058 12.8409 189.546 13.3523 189.546 13.9716C189.546 14.6023 190.058 15.108 190.683 15.108ZM197.131 15.1761C199.193 15.1761 200.528 13.9375 200.716 12.2386H199.062C198.847 13.1818 198.114 13.7386 197.142 13.7386C195.705 13.7386 194.778 12.5398 194.778 10.6364C194.778 8.76705 195.722 7.59091 197.142 7.59091C198.222 7.59091 198.881 8.27273 199.062 9.09091H200.716C200.534 7.32955 199.097 6.15909 197.114 6.15909C194.653 6.15909 193.062 8.01136 193.062 10.6761C193.062 13.3068 194.597 15.1761 197.131 15.1761ZM205.569 15.1761C208.029 15.1761 209.637 13.375 209.637 10.6761C209.637 7.96023 208.029 6.15909 205.569 6.15909C203.109 6.15909 201.501 7.96023 201.501 10.6761C201.501 13.375 203.109 15.1761 205.569 15.1761ZM205.574 13.75C203.967 13.75 203.217 12.3466 203.217 10.6705C203.217 9 203.967 7.57955 205.574 7.57955C207.171 7.57955 207.921 9 207.921 10.6705C207.921 12.3466 207.171 13.75 205.574 13.75ZM210.893 15H212.592V9.61932C212.592 8.44318 213.416 7.625 214.382 7.625C215.325 7.625 215.979 8.25 215.979 9.19886V15H217.672V9.4375C217.672 8.38636 218.314 7.625 219.422 7.625C220.319 7.625 221.058 8.125 221.058 9.30682V15H222.757V9.14773C222.757 7.15341 221.643 6.15909 220.064 6.15909C218.808 6.15909 217.865 6.76136 217.444 7.69318H217.354C216.973 6.73864 216.172 6.15909 215.007 6.15909C213.854 6.15909 212.996 6.73295 212.632 7.69318H212.524V6.27273H210.893V15Z" fill="#999FB1"/>
</svg>
