<svg width="242" height="19" viewBox="0 0 242 19" fill="none" xmlns="http://www.w3.org/2000/svg">
<path d="M2.84091 9.81818C2.84091 8.42614 3.72159 7.63068 4.93182 7.63068C6.10227 7.63068 6.80114 8.375 6.80114 9.65341V15H8.5V9.44886C8.5 7.27273 7.30682 6.15909 5.51136 6.15909C4.15341 6.15909 3.33523 6.75 2.92614 7.69318H2.81818V3.36364H1.14205V15H2.84091V9.81818ZM13.8884 15.1761C15.7918 15.1761 17.1384 14.2386 17.5248 12.8182L15.9168 12.5284C15.61 13.3523 14.8714 13.7727 13.9055 13.7727C12.4509 13.7727 11.4736 12.8295 11.4282 11.1477H17.6327V10.5455C17.6327 7.39205 15.7464 6.15909 13.7691 6.15909C11.3373 6.15909 9.735 8.01136 9.735 10.6932C9.735 13.4034 11.3145 15.1761 13.8884 15.1761ZM11.4339 9.875C11.502 8.63636 12.3998 7.5625 13.7805 7.5625C15.0986 7.5625 15.9623 8.53977 15.968 9.875H11.4339ZM20.5765 3.36364H18.8777V15H20.5765V3.36364ZM23.9209 3.36364H22.222V15H23.9209V3.36364ZM29.2426 15.1761C31.7028 15.1761 33.3107 13.375 33.3107 10.6761C33.3107 7.96023 31.7028 6.15909 29.2426 6.15909C26.7823 6.15909 25.1744 7.96023 25.1744 10.6761C25.1744 13.375 26.7823 15.1761 29.2426 15.1761ZM29.2482 13.75C27.6403 13.75 26.8903 12.3466 26.8903 10.6705C26.8903 9 27.6403 7.57955 29.2482 7.57955C30.8448 7.57955 31.5948 9 31.5948 10.6705C31.5948 12.3466 30.8448 13.75 29.2482 13.75ZM41.5727 18.1648C42.8852 18.1648 44.4023 17.8068 45.1068 17.4773L44.7091 16.233C44.2318 16.4034 42.9193 16.8182 41.6466 16.8182C37.8227 16.8182 35.7716 14.7102 35.7716 10.9375C35.7716 7.32386 37.8 4.98864 41.4364 4.98864C44.7602 4.98864 46.7432 7.125 46.7375 10.0114C46.7432 12.4773 46.425 13.5852 45.3909 13.5852C44.8057 13.5852 44.4818 13.108 44.4818 12.5114V7.23864H43.0841V7.875H43.0102C42.8398 7.375 41.8511 6.92614 40.6636 7.06818C39.0216 7.26136 37.6125 8.61932 37.6125 10.858C37.6125 13.1932 38.8057 14.7557 40.7205 14.8295C42.0159 14.8864 42.8568 14.2841 43.1239 13.6136H43.192C43.3284 14.5284 44.317 14.9318 45.2886 14.8977C47.7148 14.8523 48.175 12.4659 48.175 10.0682C48.175 6.64773 45.8341 3.67045 41.4932 3.67045C36.942 3.67045 34.2659 6.44886 34.2602 10.9261C34.2659 15.5341 36.8739 18.1648 41.5727 18.1648ZM41.05 13.4375C39.567 13.4375 39.0557 12.1648 39.05 10.7898C39.0557 9.48295 39.7886 8.44318 41.0727 8.44318C42.4648 8.44318 43.0898 9.05682 43.0955 10.7841C43.1011 12.5568 42.5273 13.4375 41.05 13.4375ZM49.4114 15H51.1103V11.9034L51.9569 11.0568L54.9228 15H57.008L53.2353 10.017L56.7694 6.27273H54.7353L51.258 9.96591H51.1103V3.36364H49.4114V15ZM60.2174 15.1932C61.6606 15.1932 62.4731 14.4602 62.797 13.8068H62.8652V15H64.5243V9.20455C64.5243 6.66477 62.5243 6.15909 61.1379 6.15909C59.5584 6.15909 58.1038 6.79545 57.5356 8.38636L59.1322 8.75C59.3822 8.13068 60.0186 7.53409 61.1606 7.53409C62.2572 7.53409 62.8197 8.10795 62.8197 9.09659V9.13636C62.8197 9.75568 62.1834 9.74432 60.6152 9.92614C58.9618 10.1193 57.2686 10.5511 57.2686 12.5341C57.2686 14.25 58.5584 15.1932 60.2174 15.1932ZM60.5868 13.8295C59.6265 13.8295 58.9334 13.3977 58.9334 12.5568C58.9334 11.6477 59.7402 11.3239 60.7231 11.1932C61.2743 11.1193 62.5811 10.9716 62.8254 10.7273V11.8523C62.8254 12.8864 62.0015 13.8295 60.5868 13.8295ZM70.2209 6.27273H68.4311V4.18182H66.7323V6.27273H65.4539V7.63636H66.7323V12.7898C66.7266 14.375 67.9368 15.142 69.2777 15.1136C69.8175 15.108 70.1811 15.0057 70.38 14.9318L70.0732 13.5284C69.9595 13.5511 69.7493 13.6023 69.4766 13.6023C68.9255 13.6023 68.4311 13.4205 68.4311 12.4375V7.63636H70.2209V6.27273ZM71.4602 15H73.159V6.27273H71.4602V15ZM72.3181 4.92614C72.9034 4.92614 73.392 4.47159 73.392 3.91477C73.392 3.35795 72.9034 2.89773 72.3181 2.89773C71.7272 2.89773 71.2443 3.35795 71.2443 3.91477C71.2443 4.47159 71.7272 4.92614 72.3181 4.92614ZM78.5659 15.1761C80.4693 15.1761 81.8159 14.2386 82.2023 12.8182L80.5943 12.5284C80.2875 13.3523 79.5489 13.7727 78.583 13.7727C77.1284 13.7727 76.1511 12.8295 76.1057 11.1477H82.3102V10.5455C82.3102 7.39205 80.4239 6.15909 78.4466 6.15909C76.0148 6.15909 74.4125 8.01136 74.4125 10.6932C74.4125 13.4034 75.992 15.1761 78.5659 15.1761ZM76.1114 9.875C76.1795 8.63636 77.0773 7.5625 78.458 7.5625C79.7761 7.5625 80.6398 8.53977 80.6455 9.875H76.1114ZM83.6915 15H85.3506V13.642H85.4927C85.7995 14.1989 86.4245 15.1705 88.0154 15.1705C90.129 15.1705 91.6631 13.4773 91.6631 10.6534C91.6631 7.82386 90.1063 6.15909 87.9984 6.15909C86.379 6.15909 85.7938 7.14773 85.4927 7.6875H85.3904V3.36364H83.6915V15ZM85.3563 10.6364C85.3563 8.8125 86.1518 7.60227 87.6347 7.60227C89.1745 7.60227 89.9472 8.90341 89.9472 10.6364C89.9472 12.3864 89.1518 13.7216 87.6347 13.7216C86.1745 13.7216 85.3563 12.4716 85.3563 10.6364ZM96.6069 15.1761C99.0672 15.1761 100.675 13.375 100.675 10.6761C100.675 7.96023 99.0672 6.15909 96.6069 6.15909C94.1467 6.15909 92.5387 7.96023 92.5387 10.6761C92.5387 13.375 94.1467 15.1761 96.6069 15.1761ZM96.6126 13.75C95.0047 13.75 94.2547 12.3466 94.2547 10.6705C94.2547 9 95.0047 7.57955 96.6126 7.57955C98.2092 7.57955 98.9592 9 98.9592 10.6705C98.9592 12.3466 98.2092 13.75 96.6126 13.75ZM104.471 15.1932C105.914 15.1932 106.727 14.4602 107.051 13.8068H107.119V15H108.778V9.20455C108.778 6.66477 106.778 6.15909 105.392 6.15909C103.812 6.15909 102.358 6.79545 101.789 8.38636L103.386 8.75C103.636 8.13068 104.272 7.53409 105.414 7.53409C106.511 7.53409 107.073 8.10795 107.073 9.09659V9.13636C107.073 9.75568 106.437 9.74432 104.869 9.92614C103.216 10.1193 101.522 10.5511 101.522 12.5341C101.522 14.25 102.812 15.1932 104.471 15.1932ZM104.841 13.8295C103.88 13.8295 103.187 13.3977 103.187 12.5568C103.187 11.6477 103.994 11.3239 104.977 11.1932C105.528 11.1193 106.835 10.9716 107.079 10.7273V11.8523C107.079 12.8864 106.255 13.8295 104.841 13.8295ZM114.475 6.27273H112.685V4.18182H110.986V6.27273H109.708V7.63636H110.986V12.7898C110.98 14.375 112.191 15.142 113.531 15.1136C114.071 15.108 114.435 15.0057 114.634 14.9318L114.327 13.5284C114.213 13.5511 114.003 13.6023 113.73 13.6023C113.179 13.6023 112.685 13.4205 112.685 12.4375V7.63636H114.475V6.27273ZM119.382 15.1761C121.285 15.1761 122.632 14.2386 123.018 12.8182L121.41 12.5284C121.103 13.3523 120.364 13.7727 119.399 13.7727C117.944 13.7727 116.967 12.8295 116.921 11.1477H123.126V10.5455C123.126 7.39205 121.239 6.15909 119.262 6.15909C116.83 6.15909 115.228 8.01136 115.228 10.6932C115.228 13.4034 116.808 15.1761 119.382 15.1761ZM116.927 9.875C116.995 8.63636 117.893 7.5625 119.274 7.5625C120.592 7.5625 121.455 8.53977 121.461 9.875H116.927ZM130.911 8.40341C130.558 7.04545 129.496 6.15909 127.609 6.15909C125.638 6.15909 124.24 7.19886 124.24 8.74432C124.24 9.98295 124.99 10.8068 126.626 11.1705L128.104 11.4943C128.945 11.6818 129.337 12.0568 129.337 12.6023C129.337 13.2784 128.615 13.8068 127.501 13.8068C126.484 13.8068 125.831 13.3693 125.626 12.5114L123.984 12.7614C124.269 14.3068 125.553 15.1761 127.513 15.1761C129.621 15.1761 131.081 14.0568 131.081 12.4773C131.081 11.2443 130.297 10.483 128.695 10.1136L127.308 9.79545C126.348 9.56818 125.933 9.24432 125.939 8.65341C125.933 7.98295 126.661 7.50568 127.626 7.50568C128.683 7.50568 129.172 8.09091 129.371 8.67614L130.911 8.40341ZM135.968 18.4545C138.19 18.4545 139.906 17.4375 139.906 15.1932V6.27273H138.241V7.6875H138.116C137.815 7.14773 137.212 6.15909 135.587 6.15909C133.479 6.15909 131.928 7.82386 131.928 10.6023C131.928 13.3864 133.513 14.8693 135.576 14.8693C137.178 14.8693 137.798 13.9659 138.104 13.4091H138.212V15.125C138.212 16.4943 137.275 17.0852 135.985 17.0852C134.57 17.0852 134.019 16.375 133.718 15.875L132.258 16.4773C132.718 17.5455 133.883 18.4545 135.968 18.4545ZM135.951 13.4602C134.434 13.4602 133.644 12.2955 133.644 10.5795C133.644 8.90341 134.417 7.60227 135.951 7.60227C137.434 7.60227 138.229 8.8125 138.229 10.5795C138.229 12.3807 137.417 13.4602 135.951 13.4602ZM145.22 15.1761C147.68 15.1761 149.288 13.375 149.288 10.6761C149.288 7.96023 147.68 6.15909 145.22 6.15909C142.76 6.15909 141.152 7.96023 141.152 10.6761C141.152 13.375 142.76 15.1761 145.22 15.1761ZM145.226 13.75C143.618 13.75 142.868 12.3466 142.868 10.6705C142.868 9 143.618 7.57955 145.226 7.57955C146.822 7.57955 147.572 9 147.572 10.6705C147.572 12.3466 146.822 13.75 145.226 13.75ZM156.073 11.3807C156.079 12.8636 154.976 13.5682 154.022 13.5682C152.971 13.5682 152.243 12.8068 152.243 11.6193V6.27273H150.545V11.8239C150.545 13.9886 151.732 15.1136 153.408 15.1136C154.721 15.1136 155.613 14.4205 156.016 13.4886H156.107V15H157.777V6.27273H156.073V11.3807ZM162.687 15.1705C164.278 15.1705 164.903 14.1989 165.21 13.642H165.352V15H167.011V3.36364H165.312V7.6875H165.21C164.903 7.14773 164.324 6.15909 162.699 6.15909C160.591 6.15909 159.039 7.82386 159.039 10.6534C159.039 13.4773 160.568 15.1705 162.687 15.1705ZM163.062 13.7216C161.545 13.7216 160.755 12.3864 160.755 10.6364C160.755 8.90341 161.528 7.60227 163.062 7.60227C164.545 7.60227 165.341 8.8125 165.341 10.6364C165.341 12.4716 164.528 13.7216 163.062 13.7216ZM168.796 15H170.495V9.67045C170.495 8.52841 171.375 7.70455 172.58 7.70455C172.932 7.70455 173.33 7.76705 173.466 7.80682V6.18182C173.296 6.15909 172.961 6.14205 172.745 6.14205C171.722 6.14205 170.847 6.72159 170.529 7.65909H170.438V6.27273H168.796V15ZM177.745 15.1761C179.649 15.1761 180.995 14.2386 181.382 12.8182L179.774 12.5284C179.467 13.3523 178.728 13.7727 177.762 13.7727C176.308 13.7727 175.331 12.8295 175.285 11.1477H181.49V10.5455C181.49 7.39205 179.603 6.15909 177.626 6.15909C175.194 6.15909 173.592 8.01136 173.592 10.6932C173.592 13.4034 175.171 15.1761 177.745 15.1761ZM175.291 9.875C175.359 8.63636 176.257 7.5625 177.637 7.5625C178.956 7.5625 179.819 8.53977 179.825 9.875H175.291ZM185.274 15.1932C186.717 15.1932 187.53 14.4602 187.854 13.8068H187.922V15H189.581V9.20455C189.581 6.66477 187.581 6.15909 186.195 6.15909C184.615 6.15909 183.161 6.79545 182.592 8.38636L184.189 8.75C184.439 8.13068 185.075 7.53409 186.217 7.53409C187.314 7.53409 187.877 8.10795 187.877 9.09659V9.13636C187.877 9.75568 187.24 9.74432 185.672 9.92614C184.019 10.1193 182.325 10.5511 182.325 12.5341C182.325 14.25 183.615 15.1932 185.274 15.1932ZM185.644 13.8295C184.683 13.8295 183.99 13.3977 183.99 12.5568C183.99 11.6477 184.797 11.3239 185.78 11.1932C186.331 11.1193 187.638 10.9716 187.882 10.7273V11.8523C187.882 12.8864 187.058 13.8295 185.644 13.8295ZM196.732 11.3807C196.738 12.8636 195.636 13.5682 194.681 13.5682C193.63 13.5682 192.903 12.8068 192.903 11.6193V6.27273H191.204V11.8239C191.204 13.9886 192.391 15.1136 194.068 15.1136C195.38 15.1136 196.272 14.4205 196.676 13.4886H196.766V15H198.437V6.27273H196.732V11.3807ZM201.199 15.108C201.818 15.108 202.335 14.6023 202.335 13.9716C202.335 13.3523 201.818 12.8409 201.199 12.8409C200.574 12.8409 200.062 13.3523 200.062 13.9716C200.062 14.6023 200.574 15.108 201.199 15.108ZM207.647 15.1761C209.709 15.1761 211.045 13.9375 211.232 12.2386H209.579C209.363 13.1818 208.63 13.7386 207.658 13.7386C206.221 13.7386 205.295 12.5398 205.295 10.6364C205.295 8.76705 206.238 7.59091 207.658 7.59091C208.738 7.59091 209.397 8.27273 209.579 9.09091H211.232C211.05 7.32955 209.613 6.15909 207.63 6.15909C205.17 6.15909 203.579 8.01136 203.579 10.6761C203.579 13.3068 205.113 15.1761 207.647 15.1761ZM216.085 15.1761C218.545 15.1761 220.153 13.375 220.153 10.6761C220.153 7.96023 218.545 6.15909 216.085 6.15909C213.625 6.15909 212.017 7.96023 212.017 10.6761C212.017 13.375 213.625 15.1761 216.085 15.1761ZM216.091 13.75C214.483 13.75 213.733 12.3466 213.733 10.6705C213.733 9 214.483 7.57955 216.091 7.57955C217.687 7.57955 218.437 9 218.437 10.6705C218.437 12.3466 217.687 13.75 216.091 13.75ZM221.41 15H223.108V9.61932C223.108 8.44318 223.932 7.625 224.898 7.625C225.841 7.625 226.495 8.25 226.495 9.19886V15H228.188V9.4375C228.188 8.38636 228.83 7.625 229.938 7.625C230.836 7.625 231.574 8.125 231.574 9.30682V15H233.273V9.14773C233.273 7.15341 232.16 6.15909 230.58 6.15909C229.324 6.15909 228.381 6.76136 227.961 7.69318H227.87C227.489 6.73864 226.688 6.15909 225.523 6.15909C224.37 6.15909 223.512 6.73295 223.148 7.69318H223.04V6.27273H221.41V15Z" fill="#999FB1"/>
</svg>
