<svg width="346" height="24" viewBox="0 0 346 24" fill="none" xmlns="http://www.w3.org/2000/svg">
<path d="M4.07955 10.4313C4.08807 8.74383 5.11932 7.75519 6.60227 7.75519C8.0767 7.75519 8.94602 8.70122 8.9375 10.312V17.9995H12.5682V9.66428C12.5767 6.5961 10.7699 4.73815 8.04261 4.73815C6.05682 4.73815 4.72727 5.67565 4.13068 7.21826H3.97727V0.544966H0.448864V17.9995H4.07955V10.4313ZM20.4313 18.2552C23.67 18.2552 25.8518 16.6785 26.3632 14.2495L23.0052 14.0279C22.6387 15.0251 21.7012 15.545 20.491 15.545C18.6757 15.545 17.5251 14.3433 17.5251 12.3916V12.383H26.4399V11.3859C26.4399 6.93701 23.7467 4.73815 20.2864 4.73815C16.4342 4.73815 13.937 7.47394 13.937 11.5137C13.937 15.6643 16.4001 18.2552 20.4313 18.2552ZM17.5251 10.133C17.6018 8.64156 18.7353 7.44838 20.3461 7.44838C21.9228 7.44838 23.0137 8.57338 23.0222 10.133H17.5251ZM31.4799 0.544966H27.8492V17.9995H31.4799V0.544966ZM37.0589 0.544966H33.4282V17.9995H37.0589V0.544966ZM44.9221 18.2552C48.8937 18.2552 51.3653 15.5364 51.3653 11.5052C51.3653 7.44838 48.8937 4.73815 44.9221 4.73815C40.9505 4.73815 38.4789 7.44838 38.4789 11.5052C38.4789 15.5364 40.9505 18.2552 44.9221 18.2552ZM44.9391 15.4427C43.1067 15.4427 42.1692 13.7637 42.1692 11.4796C42.1692 9.19553 43.1067 7.50803 44.9391 7.50803C46.7374 7.50803 47.6749 9.19553 47.6749 11.4796C47.6749 13.7637 46.7374 15.4427 44.9391 15.4427ZM64.195 23.0279C66.624 23.0279 69.0018 22.4569 70.0672 21.8518L69.2234 19.3802C68.3115 19.7552 66.3513 20.2495 64.3911 20.2495C58.8342 20.2495 55.8172 17.3006 55.8001 11.9143C55.8172 7.03928 58.5956 3.36599 64.2632 3.36599C68.3626 3.36599 72.1723 5.32622 72.1638 10.6785C72.1723 14.0109 71.5587 15.5279 70.3825 15.5279C69.7945 15.5279 69.4365 15.0847 69.428 14.2921V5.97394H66.7604V6.92849H66.6411C66.3513 6.17849 64.5445 5.4711 62.6268 5.76088C60.3513 6.09326 57.8967 7.95974 57.8797 11.9143C57.8967 15.9285 60.1808 17.9825 62.874 18.1274C64.8087 18.2381 66.5473 17.4285 66.9479 16.3972H67.0501C67.2376 17.5734 68.0217 18.3745 69.999 18.2296C73.6808 18.0251 75.0871 15.0592 75.0786 10.8745C75.0871 4.81485 71.0814 0.62167 64.3058 0.62167C56.9763 0.62167 52.7746 5.16428 52.7661 12.0166C52.7746 18.9796 56.9422 23.0279 64.195 23.0279ZM63.803 15.3234C61.5786 15.3234 60.8286 13.6188 60.82 11.812C60.8286 9.86883 61.8939 8.59894 63.7859 8.59894C65.9422 8.59894 66.5899 9.74099 66.5984 11.7864C66.624 14.1046 65.8911 15.3234 63.803 15.3234ZM80.2656 18.2467C82.2002 18.2467 83.4531 17.4029 84.0923 16.1842H84.1945V17.9995H87.6377V9.16997C87.6377 6.05065 84.9957 4.73815 82.0809 4.73815C78.9445 4.73815 76.882 6.23815 76.3792 8.62451L79.7372 8.89724C79.9843 8.02792 80.7599 7.38872 82.0639 7.38872C83.2997 7.38872 84.007 8.01088 84.007 9.08474V9.13588C84.007 9.97963 83.1122 10.0904 80.8366 10.312C78.2457 10.5506 75.919 11.42 75.919 14.3433C75.919 16.9342 77.7684 18.2467 80.2656 18.2467ZM81.3053 15.741C80.1889 15.741 79.3877 15.2211 79.3877 14.2239C79.3877 13.2012 80.2315 12.6984 81.5099 12.5194C82.3025 12.4086 83.598 12.2211 84.0326 11.9313V13.3205C84.0326 14.6927 82.8991 15.741 81.3053 15.741ZM93.1252 0.544966H89.4945V17.9995H93.1252V0.544966ZM98.7042 0.544966H95.0736V17.9995H98.7042V0.544966ZM104.386 18.2467C106.32 18.2467 107.573 17.4029 108.212 16.1842H108.315V17.9995H111.758V9.16997C111.758 6.05065 109.116 4.73815 106.201 4.73815C103.065 4.73815 101.002 6.23815 100.499 8.62451L103.857 8.89724C104.104 8.02792 104.88 7.38872 106.184 7.38872C107.42 7.38872 108.127 8.01088 108.127 9.08474V9.13588C108.127 9.97963 107.232 10.0904 104.957 10.312C102.366 10.5506 100.039 11.42 100.039 14.3433C100.039 16.9342 101.888 18.2467 104.386 18.2467ZM105.425 15.741C104.309 15.741 103.508 15.2211 103.508 14.2239C103.508 13.2012 104.351 12.6984 105.63 12.5194C106.423 12.4086 107.718 12.2211 108.153 11.9313V13.3205C108.153 14.6927 107.019 15.741 105.425 15.741ZM113.683 17.9995H117.262V15.9029H117.424C117.927 16.9938 119.026 18.2126 121.14 18.2126C124.123 18.2126 126.45 15.8518 126.45 11.4711C126.45 6.9711 124.021 4.73815 121.149 4.73815C118.958 4.73815 117.91 6.04213 117.424 7.10747H117.313V0.544966H113.683V17.9995ZM117.237 11.4541C117.237 9.11883 118.225 7.62735 119.989 7.62735C121.788 7.62735 122.742 9.18701 122.742 11.4541C122.742 13.7381 121.771 15.3234 119.989 15.3234C118.242 15.3234 117.237 13.7893 117.237 11.4541ZM133.827 18.2552C137.799 18.2552 140.27 15.5364 140.27 11.5052C140.27 7.44838 137.799 4.73815 133.827 4.73815C129.855 4.73815 127.384 7.44838 127.384 11.5052C127.384 15.5364 129.855 18.2552 133.827 18.2552ZM133.844 15.4427C132.012 15.4427 131.074 13.7637 131.074 11.4796C131.074 9.19553 132.012 7.50803 133.844 7.50803C135.642 7.50803 136.58 9.19553 136.58 11.4796C136.58 13.7637 135.642 15.4427 133.844 15.4427ZM145.404 18.2467C147.339 18.2467 148.592 17.4029 149.231 16.1842H149.333V17.9995H152.776V9.16997C152.776 6.05065 150.134 4.73815 147.219 4.73815C144.083 4.73815 142.02 6.23815 141.518 8.62451L144.876 8.89724C145.123 8.02792 145.898 7.38872 147.202 7.38872C148.438 7.38872 149.145 8.01088 149.145 9.08474V9.13588C149.145 9.97963 148.251 10.0904 145.975 10.312C143.384 10.5506 141.057 11.42 141.057 14.3433C141.057 16.9342 142.907 18.2467 145.404 18.2467ZM146.444 15.741C145.327 15.741 144.526 15.2211 144.526 14.2239C144.526 13.2012 145.37 12.6984 146.648 12.5194C147.441 12.4086 148.736 12.2211 149.171 11.9313V13.3205C149.171 14.6927 148.038 15.741 146.444 15.741ZM161.596 4.9086H159.133V1.77224H155.502V4.9086H153.712V7.63588H155.502V14.4541C155.485 17.0194 157.232 18.2893 159.866 18.1785C160.803 18.1444 161.468 17.9569 161.835 17.8376L161.264 15.1359C161.085 15.17 160.701 15.2552 160.36 15.2552C159.636 15.2552 159.133 14.9825 159.133 13.9768V7.63588H161.596V4.9086ZM168.826 18.2552C172.065 18.2552 174.247 16.6785 174.758 14.2495L171.4 14.0279C171.034 15.0251 170.096 15.545 168.886 15.545C167.071 15.545 165.92 14.3433 165.92 12.3916V12.383H174.835V11.3859C174.835 6.93701 172.142 4.73815 168.681 4.73815C164.829 4.73815 162.332 7.47394 162.332 11.5137C162.332 15.6643 164.795 18.2552 168.826 18.2552ZM165.92 10.133C165.997 8.64156 167.13 7.44838 168.741 7.44838C170.318 7.44838 171.409 8.57338 171.417 10.133H165.92ZM187.136 8.64156C186.812 6.22963 184.869 4.73815 181.562 4.73815C178.213 4.73815 176.006 6.28928 176.014 8.81201C176.006 10.7722 177.241 12.0421 179.798 12.5535L182.065 13.0052C183.207 13.2353 183.727 13.6529 183.744 14.3092C183.727 15.0847 182.883 15.6387 181.614 15.6387C180.318 15.6387 179.457 15.0847 179.236 14.0194L175.665 14.2069C176.006 16.7126 178.136 18.2552 181.605 18.2552C184.997 18.2552 187.426 16.5251 187.435 13.9427C187.426 12.0506 186.19 10.9171 183.65 10.3972L181.281 9.91997C180.062 9.65576 179.611 9.23815 179.619 8.60747C179.611 7.82338 180.497 7.31201 181.622 7.31201C182.883 7.31201 183.633 8.00235 183.812 8.8461L187.136 8.64156ZM194.658 23.1813C198.4 23.1813 201.059 21.4768 201.059 18.1274V4.9086H197.454V7.10747H197.318C196.832 6.04213 195.766 4.73815 193.576 4.73815C190.704 4.73815 188.275 6.9711 188.275 11.4285C188.275 15.7836 190.636 17.812 193.585 17.812C195.673 17.812 196.84 16.7637 197.318 15.6813H197.471V18.0762C197.471 19.8745 196.32 20.5734 194.744 20.5734C193.141 20.5734 192.332 19.8745 192.033 19.0819L188.676 19.5336C189.11 21.5961 191.13 23.1813 194.658 23.1813ZM194.735 15.0847C192.954 15.0847 191.982 13.67 191.982 11.4114C191.982 9.18701 192.937 7.62735 194.735 7.62735C196.499 7.62735 197.488 9.11883 197.488 11.4114C197.488 13.7211 196.482 15.0847 194.735 15.0847ZM208.903 18.2552C212.875 18.2552 215.346 15.5364 215.346 11.5052C215.346 7.44838 212.875 4.73815 208.903 4.73815C204.931 4.73815 202.46 7.44838 202.46 11.5052C202.46 15.5364 204.931 18.2552 208.903 18.2552ZM208.92 15.4427C207.088 15.4427 206.15 13.7637 206.15 11.4796C206.15 9.19553 207.088 7.50803 208.92 7.50803C210.718 7.50803 211.656 9.19553 211.656 11.4796C211.656 13.7637 210.718 15.4427 208.92 15.4427ZM225.142 12.4256C225.15 14.1813 223.949 15.1018 222.645 15.1018C221.273 15.1018 220.386 14.1387 220.378 12.5961V4.9086H216.747V13.2438C216.756 16.3035 218.545 18.17 221.179 18.17C223.148 18.17 224.562 17.1558 225.15 15.6217H225.287V17.9995H228.773V4.9086H225.142V12.4256ZM235.541 18.2126C237.654 18.2126 238.754 16.9938 239.256 15.9029H239.41V17.9995H242.989V0.544966H239.367V7.10747H239.256C238.771 6.04213 237.722 4.73815 235.532 4.73815C232.66 4.73815 230.231 6.9711 230.231 11.4711C230.231 15.8518 232.558 18.2126 235.541 18.2126ZM236.691 15.3234C234.91 15.3234 233.938 13.7381 233.938 11.4541C233.938 9.18701 234.893 7.62735 236.691 7.62735C238.455 7.62735 239.444 9.11883 239.444 11.4541C239.444 13.7893 238.438 15.3234 236.691 15.3234ZM245.014 17.9995H248.645V10.5933C248.645 8.98247 249.821 7.87451 251.424 7.87451C251.926 7.87451 252.617 7.95974 252.958 8.07053V4.84894C252.634 4.77224 252.182 4.7211 251.816 4.7211C250.35 4.7211 249.148 5.57338 248.671 7.19269H248.534V4.9086H245.014V17.9995ZM259.231 18.2552C262.47 18.2552 264.652 16.6785 265.163 14.2495L261.805 14.0279C261.439 15.0251 260.501 15.545 259.291 15.545C257.476 15.545 256.325 14.3433 256.325 12.3916V12.383H265.24V11.3859C265.24 6.93701 262.547 4.73815 259.086 4.73815C255.234 4.73815 252.737 7.47394 252.737 11.5137C252.737 15.6643 255.2 18.2552 259.231 18.2552ZM256.325 10.133C256.402 8.64156 257.535 7.44838 259.146 7.44838C260.723 7.44838 261.814 8.57338 261.822 10.133H256.325ZM270.382 18.2467C272.317 18.2467 273.57 17.4029 274.209 16.1842H274.311V17.9995H277.754V9.16997C277.754 6.05065 275.112 4.73815 272.197 4.73815C269.061 4.73815 266.999 6.23815 266.496 8.62451L269.854 8.89724C270.101 8.02792 270.876 7.38872 272.18 7.38872C273.416 7.38872 274.124 8.01088 274.124 9.08474V9.13588C274.124 9.97963 273.229 10.0904 270.953 10.312C268.362 10.5506 266.036 11.42 266.036 14.3433C266.036 16.9342 267.885 18.2467 270.382 18.2467ZM271.422 15.741C270.305 15.741 269.504 15.2211 269.504 14.2239C269.504 13.2012 270.348 12.6984 271.626 12.5194C272.419 12.4086 273.715 12.2211 274.149 11.9313V13.3205C274.149 14.6927 273.016 15.741 271.422 15.741ZM288.006 12.4256C288.014 14.1813 286.813 15.1018 285.509 15.1018C284.137 15.1018 283.25 14.1387 283.242 12.5961V4.9086H279.611V13.2438C279.62 16.3035 281.409 18.17 284.043 18.17C286.012 18.17 287.426 17.1558 288.014 15.6217H288.151V17.9995H291.637V4.9086H288.006V12.4256ZM295.703 18.2211C296.794 18.2211 297.74 17.3092 297.748 16.1756C297.74 15.0592 296.794 14.1472 295.703 14.1472C294.578 14.1472 293.649 15.0592 293.657 16.1756C293.649 17.3092 294.578 18.2211 295.703 18.2211ZM305.684 18.2552C309.17 18.2552 311.36 16.2097 311.531 13.2012H308.104C307.891 14.5989 306.971 15.383 305.727 15.383C304.031 15.383 302.931 13.9597 302.931 11.4541C302.931 8.98247 304.039 7.56769 305.727 7.56769C307.056 7.56769 307.908 8.44553 308.104 9.74951H311.531C311.377 6.72394 309.085 4.73815 305.667 4.73815C301.695 4.73815 299.241 7.49099 299.241 11.5052C299.241 15.4853 301.653 18.2552 305.684 18.2552ZM318.81 18.2552C322.781 18.2552 325.253 15.5364 325.253 11.5052C325.253 7.44838 322.781 4.73815 318.81 4.73815C314.838 4.73815 312.367 7.44838 312.367 11.5052C312.367 15.5364 314.838 18.2552 318.81 18.2552ZM318.827 15.4427C316.995 15.4427 316.057 13.7637 316.057 11.4796C316.057 9.19553 316.995 7.50803 318.827 7.50803C320.625 7.50803 321.563 9.19553 321.563 11.4796C321.563 13.7637 320.625 15.4427 318.827 15.4427ZM326.654 17.9995H330.285V10.1416C330.285 8.69269 331.205 7.72963 332.415 7.72963C333.608 7.72963 334.41 8.54781 334.41 9.83474V17.9995H337.929V10.0052C337.929 8.65008 338.705 7.72963 340.026 7.72963C341.185 7.72963 342.054 8.45406 342.054 9.91144V17.9995H345.677V9.19553C345.677 6.35747 343.989 4.73815 341.552 4.73815C339.634 4.73815 338.142 5.71826 337.606 7.21826H337.469C337.052 5.70122 335.714 4.73815 333.915 4.73815C332.151 4.73815 330.813 5.67565 330.267 7.21826H330.114V4.9086H326.654V17.9995Z" fill="white"/>
</svg>
