<svg width="50" height="50" viewBox="0 0 50 50" fill="none" xmlns="http://www.w3.org/2000/svg">
<g clip-path="url(#clip0_124_287)">
<path d="M49.0533 22.7719L27.2228 0.941429C26.6188 0.337685 25.7997 -0.00146484 24.9456 -0.00146484C24.0916 -0.00146484 23.2725 0.337685 22.6685 0.941429L18.1359 5.47402L23.8873 11.2255C24.5681 10.986 25.3029 10.9448 26.0062 11.1068C26.7094 11.2687 27.3522 11.6271 27.8597 12.1403C28.3671 12.6534 28.7184 13.3002 28.8725 14.0052C29.0265 14.7103 28.9772 15.4446 28.7301 16.1226L34.2693 21.6673C35.0915 21.3837 35.9861 21.3901 36.8042 21.6854C37.6223 21.9807 38.3147 22.547 38.7663 23.2904C39.2179 24.0337 39.4015 24.9092 39.2866 25.7713C39.1717 26.6334 38.7652 27.4303 38.1347 28.0294C37.5041 28.6285 36.6875 28.9937 35.8206 29.0644C34.9538 29.1351 34.0888 28.9069 33.3695 28.4179C32.6503 27.9289 32.12 27.2084 31.867 26.3763C31.6139 25.5442 31.6533 24.6505 31.9785 23.8438L26.8093 18.6746V32.2778C27.1831 32.4657 27.5248 32.7118 27.8214 33.007C28.3961 33.5868 28.7692 34.3361 28.8858 35.1441C29.0025 35.9522 28.8563 36.7763 28.469 37.495C28.0817 38.2138 27.4737 38.789 26.7347 39.136C25.9957 39.4829 25.1647 39.5832 24.3643 39.4221C23.564 39.261 22.8365 38.847 22.2893 38.2411C21.7421 37.6352 21.404 36.8695 21.325 36.0569C21.2459 35.2443 21.4301 34.4278 21.8503 33.7278C22.2705 33.0278 22.9045 32.4813 23.6588 32.169V18.4189C23.1869 18.2285 22.759 17.9433 22.4019 17.5809C21.8631 17.045 21.497 16.3601 21.3506 15.6145C21.2042 14.8688 21.2841 14.0964 21.5802 13.3965L15.9104 7.72672L0.941421 22.6903C0.337346 23.2953 -0.00195312 24.1152 -0.00195312 24.9702C-0.00195312 25.8251 0.337346 26.6451 0.941421 27.2501L22.7719 49.0751C23.3759 49.6788 24.195 50.018 25.049 50.018C25.9031 50.018 26.7222 49.6788 27.3262 49.0751L49.0533 27.348C49.3555 27.0485 49.5954 26.6921 49.7591 26.2994C49.9228 25.9067 50.0071 25.4854 50.0071 25.0599C50.0071 24.6345 49.9228 24.2132 49.7591 23.8205C49.5954 23.4278 49.3555 23.0714 49.0533 22.7719Z" fill="white"/>
</g>
<defs>
<clipPath id="clip0_124_287">
<rect width="50" height="50" fill="white"/>
</clipPath>
</defs>
</svg>
