<svg width="50" height="50" viewBox="0 0 50 50" fill="none" xmlns="http://www.w3.org/2000/svg">
<path d="M35.6834 0C33.7407 0.0144509 31.8092 0.296978 29.9438 0.839583L29.8125 0.88125C28.6359 0.673307 27.4447 0.558369 26.25 0.5375C23.7959 0.495833 21.6875 1.09167 19.9875 2.08333C18.3125 1.50208 14.8375 0.5 11.175 0.7C8.62504 0.839583 5.8417 1.61458 3.7792 3.79167C1.72295 5.96875 0.635454 9.3375 0.864621 13.9208C0.927121 15.1854 1.28754 17.2479 1.88545 19.9187C2.48337 22.5896 3.32295 25.7167 4.37087 28.5687C5.41879 31.4229 6.5667 33.9854 8.36045 35.7271C9.25629 36.6 10.4896 37.3333 11.9438 37.2729C12.9646 37.2313 13.8875 36.7833 14.6834 36.1229C15.0709 36.6333 15.4855 36.8563 15.8625 37.0625C16.3375 37.3229 16.8 37.5 17.2792 37.6167C18.1396 37.8312 19.6125 38.1187 21.3375 37.825C21.925 37.7271 22.5438 37.5354 23.1605 37.2625C23.1834 37.95 23.2105 38.6229 23.2375 39.3042C23.323 41.4625 23.3771 43.4562 24.025 45.2042C24.1292 45.4896 24.4146 46.9604 25.5396 48.2583C26.6646 49.5583 28.8688 50.3687 31.3792 49.8312C33.15 49.4521 35.4021 48.7687 36.898 46.6396C38.3771 44.5354 39.0438 41.5167 39.175 36.6208C39.2084 36.3562 39.248 36.1312 39.2896 35.9208L39.6417 35.9521H39.6834C41.573 36.0375 43.623 35.7688 45.3355 34.9729C46.8521 34.2708 48 33.5604 48.8355 32.3C49.0438 31.9875 49.273 31.6104 49.3355 30.9604C49.398 30.3104 49.025 29.2937 48.4063 28.825C47.1667 27.8833 46.3875 28.2417 45.5521 28.4146C44.7292 28.5965 43.8905 28.6984 43.048 28.7187C45.4563 24.6625 47.1834 20.3542 48.1688 16.5417C48.7521 14.2917 49.0792 12.2167 49.1063 10.4021C49.1334 8.5875 48.9855 6.98125 47.898 5.59167C44.5 1.25 39.723 0.05 36.0271 0.00833333C35.9125 0.00625 35.798 0.00416667 35.6834 0.00625V0ZM35.5855 1.33333C39.0813 1.3 43.548 2.28125 46.7542 6.37917C47.475 7.3 47.6896 8.64583 47.6646 10.3042C47.6375 11.9604 47.3313 13.9437 46.7709 16.1167C45.6834 20.325 43.6292 25.2312 40.7355 29.6333C40.8377 29.7059 40.9482 29.7661 41.0646 29.8125C41.6688 30.0625 43.0459 30.2771 45.7938 29.7125C46.4855 29.5667 46.9917 29.4687 47.5167 29.8687C47.6443 29.9769 47.7451 30.1131 47.8112 30.2667C47.8774 30.4203 47.9071 30.5872 47.898 30.7542C47.8699 31.007 47.7766 31.2483 47.6271 31.4542C47.0959 32.2521 46.048 33.0083 44.7042 33.6312C43.5146 34.1854 41.8084 34.475 40.2959 34.4917C39.5375 34.5 38.8375 34.4417 38.2438 34.2563L38.2063 34.2417C37.9771 36.45 37.45 40.8104 37.1063 42.8C36.8313 44.4042 36.35 45.6792 35.4313 46.6333C34.5146 47.5875 33.2167 48.1625 31.4709 48.5375C29.3084 49.0021 27.7313 48.5021 26.7146 47.6458C25.7 46.7917 25.2355 45.6583 24.9563 44.9646C24.7646 44.4854 24.6646 43.8646 24.5688 43.0354C24.473 42.2062 24.4021 41.1917 24.3542 40.0479C24.2904 38.2966 24.2695 36.544 24.2917 34.7917C23.3884 35.619 22.2658 36.1687 21.0584 36.375C19.623 36.6187 18.3417 36.3792 17.5771 36.1875C17.2002 36.0928 16.8364 35.9522 16.4938 35.7687C16.1396 35.5792 15.8021 35.3646 15.5771 34.9417C15.4449 34.6995 15.4028 34.4182 15.4584 34.1479C15.5288 33.8739 15.6886 33.6312 15.9125 33.4583C16.325 33.1229 16.8709 32.9354 17.6938 32.7646C19.1917 32.4562 19.7146 32.2458 20.0334 31.9937C20.3042 31.7771 20.6105 31.3396 21.1521 30.6979C21.1495 30.6695 21.1474 30.641 21.1459 30.6125C20.1765 30.5852 19.2272 30.3297 18.375 29.8667C18.0625 30.1958 16.4667 31.8833 14.5209 34.225C13.7021 35.2042 12.798 35.7667 11.8438 35.8062C10.8896 35.8479 10.0271 35.3667 9.29379 34.6562C7.8292 33.2333 6.66045 30.7854 5.6417 28.0187C4.62504 25.2521 3.79795 22.1708 3.21045 19.5458C2.62087 16.9208 2.27295 14.8042 2.22295 13.7833C2.0042 9.44583 3.01879 6.52292 4.75837 4.67917C6.50004 2.83542 8.88754 2.1375 11.2146 2.00417C15.3917 1.76458 19.3584 3.22083 20.1605 3.53333C21.7063 2.48333 23.698 1.82917 26.1855 1.87083C27.3664 1.8874 28.5415 2.03979 29.6875 2.325L29.7292 2.30625C30.2336 2.12893 30.7476 1.98008 31.2688 1.86042C32.6838 1.53032 34.1305 1.35499 35.5834 1.3375L35.5855 1.33333ZM35.9021 2.72917H35.598C34.4044 2.74581 33.2153 2.87979 32.048 3.12917C34.6438 4.27917 36.6042 6.05 37.9855 7.81667C38.9449 9.03988 39.738 10.3849 40.3438 11.8167C40.573 12.3667 40.7271 12.8312 40.8146 13.1917C40.8584 13.3729 40.8875 13.525 40.898 13.6833C40.9021 13.7625 40.9063 13.8437 40.873 13.9833C40.873 13.9896 40.8625 14.0042 40.8605 14.0104C40.923 15.8354 40.4709 17.0729 40.4167 18.8146C40.375 20.0771 40.698 21.5604 40.7771 23.1792C40.8521 24.7 40.6688 26.3708 39.6813 28.0104C39.7646 28.1104 39.8396 28.2104 39.9188 28.3104C42.5313 24.1958 44.4146 19.6437 45.4188 15.7625C45.9563 13.6729 46.2417 11.7792 46.2667 10.2792C46.2875 8.77917 46.0084 7.69167 45.6521 7.2375C42.8563 3.6625 39.073 2.75208 35.9021 2.72708V2.72917ZM25.923 3.2625C23.4605 3.26875 21.6938 4.0125 20.3542 5.12708C18.973 6.27917 18.0459 7.85625 17.4375 9.47083C16.7146 11.3875 16.4667 13.2417 16.3688 14.5L16.3959 14.4833C17.1396 14.0667 18.1167 13.65 19.1625 13.4083C20.2084 13.1687 21.3355 13.0937 22.3563 13.4896C23.3771 13.8854 24.2209 14.8167 24.5271 16.2292C25.9938 23.0146 24.0709 25.5375 23.3625 27.4417C23.0938 28.1318 22.8636 28.8364 22.673 29.5521C22.7625 29.5312 22.8521 29.5062 22.9417 29.4979C23.4417 29.4562 23.8334 29.6229 24.0667 29.7229C24.7792 30.0187 25.2688 30.6396 25.5334 31.3479C25.6021 31.5333 25.6521 31.7333 25.6813 31.9396C25.7121 32.0243 25.7262 32.1141 25.723 32.2042C25.644 34.7996 25.653 37.3969 25.75 39.9917C25.798 41.1125 25.8688 42.1 25.9584 42.8792C26.048 43.6562 26.175 44.2479 26.2563 44.4479C26.523 45.1146 26.9125 45.9875 27.6167 46.5812C28.3209 47.1729 29.3313 47.5687 31.1771 47.1729C32.7771 46.8292 33.7646 46.3521 34.425 45.6667C35.0834 44.9812 35.4771 44.0271 35.7292 42.5667C36.1063 40.3792 36.8646 34.0354 36.9563 32.8417C36.9146 31.9417 37.048 31.25 37.3355 30.7229C37.6313 30.1812 38.0896 29.85 38.4855 29.6708C38.6834 29.5812 38.8688 29.5208 39.0209 29.4771C38.8599 29.2457 38.691 29.0199 38.5146 28.8C37.9439 28.1079 37.4766 27.3366 37.1271 26.5104C36.9598 26.1692 36.7812 25.8336 36.5917 25.5042C36.3146 25.0042 35.9646 24.3792 35.598 23.6771C34.8646 22.2708 34.0667 20.5667 33.6521 18.9062C33.2396 17.2479 33.1792 15.5312 34.2375 14.3208C35.175 13.2458 36.8209 12.8 39.2917 13.05C39.2188 12.8312 39.175 12.65 39.0521 12.3583C38.4935 11.0435 37.7643 9.80791 36.8834 8.68333C34.7896 6.00625 31.4 3.35208 26.1625 3.26667H25.923V3.2625ZM12.0855 3.37083C11.8209 3.37083 11.5563 3.37917 11.2938 3.39375C9.18962 3.51458 7.20004 4.125 5.77712 5.63333C4.35212 7.14167 3.41462 9.61458 3.61879 13.7083C3.65837 14.4833 3.99587 16.6542 4.57504 19.2333C5.15212 21.8125 5.97087 24.8479 6.9542 27.5292C7.93962 30.2104 9.13337 32.5437 10.2667 33.6479C10.8375 34.2 11.3334 34.4229 11.7834 34.4042C12.2355 34.3833 12.7792 34.1229 13.4438 33.325C14.6555 31.8634 15.913 30.4405 17.2146 29.0583C16.2911 28.2565 15.5843 27.235 15.1594 26.0881C14.7345 24.9412 14.6052 23.7058 14.7834 22.4958C14.998 20.9562 15.0271 19.5167 15.0021 18.3792C14.9771 17.2708 14.898 16.5333 14.898 16.0729C14.8976 16.0597 14.8976 16.0465 14.898 16.0333V16.0229L14.8959 16.0104V16.0083C14.8946 13.61 15.312 11.2298 16.1292 8.975C16.7125 7.425 17.5813 5.85 18.8834 4.575C17.6042 4.15417 15.3334 3.5125 12.875 3.39167C12.6114 3.37813 12.3474 3.37118 12.0834 3.37083H12.0855ZM37.9146 14.375C36.5 14.3937 35.7063 14.7583 35.2896 15.2354C34.7 15.9125 34.6438 17.1 35.0105 18.5625C35.375 20.0271 36.1292 21.6646 36.8375 23.025C37.1917 23.7062 37.5355 24.3187 37.8125 24.8167C38.0917 25.3167 38.2959 25.6708 38.4209 25.9729C38.5355 26.2521 38.6625 26.4979 38.7917 26.7271C39.3396 25.5708 39.4375 24.4354 39.3813 23.2521C39.3084 21.7875 38.9688 20.2896 39.0188 18.7729C39.075 17 39.425 15.8458 39.4563 14.475C38.9451 14.4088 38.4301 14.3754 37.9146 14.375V14.375ZM20.7605 14.6146C20.3283 14.6186 19.8979 14.6703 19.4771 14.7687C18.6384 14.9725 17.8306 15.2871 17.075 15.7042C16.8194 15.8413 16.5762 16.0002 16.348 16.1792L16.3021 16.2208C16.3146 16.525 16.375 17.2625 16.4 18.3479C16.425 19.5354 16.3959 21.05 16.1667 22.6896C15.6688 26.2521 18.2542 29.2021 21.2917 29.2062C21.4688 28.475 21.7605 27.7333 22.0521 26.9521C22.898 24.6729 24.5625 23.0104 23.1605 16.5229C22.9313 15.4604 22.4771 15.0312 21.8521 14.7896C21.5018 14.6657 21.1319 14.6064 20.7605 14.6146V14.6146ZM37.2542 15.0396H37.3584C37.4959 15.0437 37.623 15.0583 37.7334 15.0854C37.8459 15.1104 37.9417 15.1479 38.0209 15.2C38.0615 15.2252 38.0964 15.2585 38.1233 15.298C38.1502 15.3375 38.1685 15.3822 38.1771 15.4292L38.175 15.4458H38.1771H38.175C38.1791 15.5447 38.1537 15.6426 38.1021 15.7271C38.0407 15.8414 37.9635 15.9466 37.873 16.0396C37.6616 16.2723 37.3786 16.4278 37.0688 16.4812C36.7673 16.5177 36.4631 16.4412 36.2146 16.2667C36.1129 16.1983 36.0217 16.1154 35.9438 16.0208C35.8764 15.9465 35.8309 15.8549 35.8125 15.7562C35.8082 15.7082 35.8137 15.6597 35.8287 15.6139C35.8438 15.568 35.8681 15.5257 35.9 15.4896C35.9684 15.4119 36.0512 15.3482 36.1438 15.3021C36.3438 15.1896 36.6146 15.1062 36.9209 15.0604C37.0355 15.0437 37.148 15.0354 37.2542 15.0333V15.0396ZM20.9625 15.3896C21.073 15.3896 21.1896 15.4 21.3084 15.4167C21.6271 15.4604 21.9105 15.5458 22.1271 15.6708C22.2328 15.726 22.3269 15.801 22.4042 15.8917C22.4463 15.9398 22.478 15.9961 22.4974 16.057C22.5168 16.118 22.5233 16.1822 22.5167 16.2458C22.4967 16.3656 22.4424 16.477 22.3605 16.5667C22.2752 16.6713 22.1748 16.7626 22.0625 16.8375C21.7916 17.0295 21.4588 17.1134 21.1292 17.0729C20.7924 17.0176 20.4841 16.8502 20.2542 16.5979C20.1564 16.4963 20.0736 16.3813 20.0084 16.2562C19.9397 16.1462 19.9096 16.0165 19.923 15.8875C19.9542 15.6625 20.1396 15.5458 20.3209 15.4812C20.5273 15.4153 20.744 15.3871 20.9605 15.3979L20.9625 15.3896ZM39.8375 30.6875L39.8313 30.6896C39.525 30.8 39.273 30.8458 39.0605 30.9396C38.8456 31.0223 38.6684 31.1809 38.5625 31.3854C38.4313 31.625 38.3188 32.05 38.3521 32.7729C38.4464 32.8378 38.5505 32.8871 38.6605 32.9187C39.0167 33.0271 39.6146 33.0979 40.2813 33.0875C41.6105 33.0729 43.2459 32.7625 44.1146 32.3583C44.8273 32.0272 45.4889 31.5958 46.0792 31.0771H46.0771C43.175 31.6771 41.5355 31.5167 40.5292 31.1021C40.2793 30.9981 40.0462 30.8577 39.8375 30.6854V30.6875ZM23.1063 30.8833H23.0625C22.9521 30.8937 22.7917 30.9312 22.4813 31.275C21.7563 32.0875 21.5021 32.5979 20.9042 33.075C20.3063 33.55 19.5292 33.8042 17.9771 34.1229C17.4855 34.2229 17.2042 34.3333 17.0167 34.4229C17.0771 34.4729 17.0709 34.4854 17.1625 34.5333C17.3896 34.6583 17.6813 34.7687 17.9167 34.8292C18.5834 34.9958 19.6792 35.1896 20.823 34.9958C21.9667 34.8 23.1563 34.2521 24.1709 32.8292C24.3459 32.5833 24.3646 32.2208 24.2209 31.8312C24.075 31.4417 23.7563 31.1062 23.5313 31.0125C23.3974 30.9479 23.2538 30.9057 23.1063 30.8875V30.8833Z" fill="white"/>
</svg>
