<svg width="50" height="50" viewBox="0 0 50 50" fill="none" xmlns="http://www.w3.org/2000/svg">
<path d="M17.7995 6.96924C16.7811 6.96924 15.8367 7.19721 15 7.67887C12.3852 9.18852 11.3899 12.8674 11.9173 17.4478C7.68783 19.2812 5 21.9809 5 24.9998C5 28.0187 7.68783 30.7184 11.9173 32.5519C11.3902 37.1321 12.3852 40.8111 15 42.3208C15.835 42.8025 16.7795 43.0304 17.7995 43.0304C19.9705 43.0304 22.4797 41.9408 25 40.0714C27.5205 41.9408 30.0327 43.0304 32.2038 43.0304C33.2221 43.0304 34.1666 42.8025 35.0033 42.3208C37.618 40.8112 38.6133 37.1322 38.0859 32.5519C42.3138 30.7185 45 28.0181 45 24.9998C45 21.9809 42.3122 19.2812 38.0827 17.4478C38.6098 12.8676 37.6148 9.18852 35 7.67887C34.165 7.19554 33.2205 6.96924 32.2005 6.96924C30.0295 6.96924 27.5202 8.05886 25 9.92822C22.4796 8.05886 19.9698 6.96924 17.7995 6.96924ZM17.7995 9.8859C19.1022 9.8859 20.8249 10.5786 22.6953 11.8618C21.5956 12.8996 20.5186 14.0797 19.4824 15.3937C17.8018 15.6347 16.2172 15.986 14.7493 16.4256C14.7415 16.3238 14.7228 16.217 14.7168 16.1164C14.5385 13.1497 15.19 10.9382 16.4583 10.2049C16.8333 9.98825 17.2711 9.8859 17.7995 9.8859ZM32.2005 9.8859C32.7272 9.8859 33.1667 9.98825 33.5417 10.2049C34.81 10.9366 35.4615 13.1497 35.2832 16.1164C35.2772 16.217 35.2586 16.3238 35.2507 16.4256C33.7818 15.9857 32.1961 15.6347 30.5143 15.3937C29.4782 14.0799 28.4044 12.8995 27.3047 11.8618C29.1749 10.5788 30.8985 9.8859 32.2005 9.8859ZM25 13.714C25.4518 14.1253 25.9004 14.5599 26.3542 15.0356C25.9045 15.0205 25.4573 14.9998 25 14.9998C24.5438 14.9998 24.0977 15.0206 23.6491 15.0356C24.1024 14.5604 24.5486 14.1249 25 13.714ZM25 17.9165C26.3811 17.9165 27.6902 17.9937 28.9323 18.1281C29.6898 19.1577 30.4363 20.2462 31.1361 21.4582C31.8068 22.6199 32.3999 23.809 32.9232 24.9998C32.3998 26.1914 31.8072 27.3823 31.1361 28.5448C30.4385 29.7532 29.6938 30.8347 28.9388 31.8618C27.6529 32.0025 26.3337 32.0832 25 32.0832C23.6189 32.0832 22.3098 32.006 21.0677 31.8716C20.3102 30.842 19.5637 29.7567 18.8639 28.5448C18.1928 27.3823 17.6003 26.1914 17.0768 24.9998C17.6 23.809 18.1932 22.6199 18.8639 21.4582C19.5618 20.2497 20.306 19.1649 21.0612 18.1379C22.3471 17.9972 23.6663 17.9165 25 17.9165ZM32.9102 18.8182C33.5714 18.9778 34.2071 19.1502 34.8047 19.3423C34.6693 19.954 34.5037 20.5775 34.3164 21.2075C34.1019 20.8051 33.894 20.4013 33.6621 19.9998C33.4236 19.5868 33.1587 19.2158 32.9102 18.8182ZM17.0866 18.8215C16.8388 19.2178 16.5757 19.5882 16.3379 19.9998C16.1061 20.4014 15.898 20.805 15.6836 21.2075C15.4958 20.5762 15.3276 19.952 15.1921 19.339C15.8006 19.1468 16.4347 18.9765 17.0866 18.8215ZM12.4479 20.41C12.7991 21.8927 13.2862 23.4297 13.9128 24.9966C13.2875 26.5597 12.8025 28.0939 12.4512 29.5734C9.54872 28.1718 7.91667 26.4271 7.91667 24.9998C7.91667 23.5348 9.50312 21.8653 12.1615 20.5369C12.2522 20.4916 12.3552 20.4543 12.4479 20.41ZM37.5488 20.4263C40.4513 21.8278 42.0833 23.5725 42.0833 24.9998C42.0833 26.4648 40.4969 28.1344 37.8385 29.4627C37.7478 29.5081 37.6448 29.5453 37.5521 29.5897C37.2007 28.1061 36.7176 26.5677 36.0905 24.9998C36.715 23.438 37.1978 21.9045 37.5488 20.4263ZM25 21.6665C23.1583 21.6665 21.6667 23.1582 21.6667 24.9998C21.6667 26.8415 23.1583 28.3332 25 28.3332C26.8417 28.3332 28.3333 26.8415 28.3333 24.9998C28.3333 23.1582 26.8417 21.6665 25 21.6665ZM15.6836 28.7922C15.8981 29.1947 16.1092 29.5982 16.3411 29.9998C16.5794 30.4125 16.8415 30.7842 17.0898 31.1815C16.4286 31.0218 15.7929 30.8495 15.1953 30.6574C15.3308 30.0453 15.4961 29.4226 15.6836 28.7922ZM34.3164 28.7954C34.5039 29.4261 34.6725 30.0483 34.8079 30.6606C34.1994 30.8529 33.5653 31.0232 32.9134 31.1782C33.1612 30.7819 33.4243 30.4115 33.6621 29.9998C33.8934 29.5991 34.1024 29.1971 34.3164 28.7954ZM14.7493 33.5741C16.2182 34.014 17.8039 34.365 19.4857 34.606C20.5221 35.9204 21.5951 37.1031 22.6953 38.1411C20.8251 39.424 19.1021 40.117 17.7995 40.117C17.2728 40.117 16.8333 40.0114 16.4583 39.7948C15.19 39.0631 14.5385 36.8532 14.7168 33.8866C14.7229 33.7849 14.7413 33.6769 14.7493 33.5741ZM35.2507 33.5741C35.2586 33.6769 35.2771 33.7849 35.2832 33.8866C35.4615 36.8532 34.81 39.0614 33.5417 39.7948C33.1667 40.0114 32.7289 40.117 32.2005 40.117C30.8979 40.117 29.1749 39.4242 27.3047 38.1411C28.4049 37.1029 29.4809 35.9206 30.5176 34.606C32.1982 34.365 33.7828 34.0137 35.2507 33.5741ZM23.6458 34.964C24.0955 34.9791 24.5427 34.9998 25 34.9998C25.4573 34.9998 25.9045 34.9791 26.3542 34.964C25.9004 35.4398 25.4518 35.8744 25 36.2856C24.5482 35.8744 24.0996 35.4398 23.6458 34.964Z" fill="white"/>
</svg>
