<svg width="50" height="50" viewBox="0 0 50 50" fill="none" xmlns="http://www.w3.org/2000/svg">
<path d="M24.9056 6.65669C24.8719 6.65892 24.8382 6.66218 24.8047 6.66646H24.6061L24.4499 6.74458C24.3057 6.79297 24.1688 6.86088 24.043 6.9464L17.347 10.296L10.2962 17.3468L6.9629 24.0102C6.86548 24.1487 6.78974 24.3013 6.73829 24.4627L6.66668 24.6059V24.7882C6.65212 24.9147 6.65212 25.0425 6.66668 25.1691V38.8507L6.98243 39.2869C7.25652 39.6667 7.56563 40.0459 7.92644 40.4067C9.6631 42.1433 11.9481 43.0294 14.4694 43.2517C14.6407 43.3074 14.8199 43.3348 15 43.3331H41.4128C41.5568 43.3576 41.7035 43.3631 41.849 43.3494C41.8882 43.3454 41.9273 43.3399 41.9662 43.3331H43.3333V41.9594C43.3635 41.7784 43.3635 41.5936 43.3333 41.4125V14.9998C43.3351 14.8197 43.3076 14.6405 43.252 14.4692C43.0296 11.948 42.1434 9.66329 40.4069 7.92622H40.4037V7.92297C40.0435 7.56484 39.6664 7.25823 39.2904 6.98547L38.8509 6.66646H25.1497C25.0687 6.65723 24.9871 6.65397 24.9056 6.65669V6.65669ZM31.0156 9.99979H37.7116C37.8248 10.0953 37.9523 10.1858 38.0534 10.2862C39.273 11.508 39.9326 13.2564 39.9935 15.3872L31.0156 9.99979ZM24.9284 10.2342L27.9427 12.0408L26.7741 19.2023L23.8216 22.1547L19.2025 26.7739L12.041 27.9425L10.2344 24.9282L13.0371 19.3194L19.3197 13.0369L24.9284 10.2342ZM31.0189 13.8865L36.6699 17.2784L30.3353 18.0694L31.0189 13.8865ZM39.222 20.3188C38.249 23.4498 36.3474 26.8595 33.6068 30.0388L30.5859 21.3963L39.222 20.3188ZM27.6367 23.0532L30.0977 30.0974L23.0534 27.6365L26.1784 24.5115L27.6367 23.0532ZM40 26.7706V37.643L35.3939 33.0369C37.2336 31.0304 38.7761 28.916 40 26.7706ZM18.0697 30.3351L17.2787 36.6697L13.8867 31.0187L18.0697 30.3351ZM21.3965 30.5857L30.0358 33.6066C26.8575 36.3459 23.4494 38.249 20.319 39.2218L21.3965 30.5857ZM10 31.0154L15.3874 39.9933C13.2542 39.9324 11.5047 39.2714 10.2832 38.0499C10.184 37.9508 10.0945 37.8234 10 37.7114V31.0154ZM33.0371 35.3937L37.6432 39.9998H26.7708C28.9163 38.7758 31.0308 37.2331 33.0371 35.3937Z" fill="white"/>
</svg>
