<svg width="50" height="50" viewBox="0 0 50 50" fill="none" xmlns="http://www.w3.org/2000/svg">
<path d="M10.0001 6.6665C8.15841 6.6665 6.66675 8.15817 6.66675 9.99984V39.9998C6.66675 41.8415 8.15841 43.3332 10.0001 43.3332H40.0001C41.8417 43.3332 43.3334 41.8415 43.3334 39.9998V9.99984C43.3334 8.15817 41.8417 6.6665 40.0001 6.6665H10.0001ZM25.2019 18.1476C27.6752 18.1476 28.6394 20.8597 28.6394 24.033C28.6394 27.0897 27.9377 28.8774 26.7677 29.4757V29.5506C27.5327 29.8906 28.3459 30.1516 29.0626 30.4132L28.3985 31.852C27.4402 31.4604 26.2811 30.876 25.5111 30.4393C25.2761 30.3126 25.1064 30.2212 25.0164 30.2212C22.8764 30.2212 21.4877 28.1232 21.4877 24.1632C21.4877 20.6516 22.8236 18.1476 25.2019 18.1476ZM16.9825 18.1802C17.7425 18.1802 18.4286 18.4065 18.7436 18.6099L18.3985 20.2147C18.0785 20.0047 17.5768 19.811 16.9402 19.811C15.8785 19.811 15.3777 20.5334 15.3777 21.2401C15.3777 22.1551 15.8459 22.5712 17.0476 23.3462C18.5459 24.3162 19.144 25.4584 19.144 26.7251C19.1423 28.8368 17.6227 30.1854 15.5144 30.1854C14.6277 30.1854 13.7441 29.9372 13.3757 29.6938L13.6915 28.0858C14.1315 28.3508 14.896 28.5578 15.5177 28.5578C16.6677 28.5578 17.2983 27.8837 17.2983 26.9204C17.2983 25.9671 16.717 25.4305 15.752 24.7655C14.4487 23.9288 13.5287 22.756 13.5287 21.481C13.5287 19.6376 14.7808 18.1802 16.9825 18.1802ZM31.6667 18.2876H33.532V28.4992H36.6863V30.0812H31.6667V18.2876ZM25.0977 19.7752C23.8911 19.7752 23.4178 21.9087 23.4278 24.1437C23.4078 26.507 23.8427 28.5936 25.0977 28.5936C26.2977 28.5936 26.6993 26.5094 26.6993 24.1144C26.6993 21.8928 26.3311 19.7752 25.0977 19.7752Z" fill="white"/>
</svg>
