<svg width="30" height="30" viewBox="0 0 30 30" fill="none" xmlns="http://www.w3.org/2000/svg">
<path fill-rule="evenodd" clip-rule="evenodd" d="M6 4C4.89543 4 4 4.89543 4 6V24C4 25.1046 4.89543 26 6 26H24C25.1046 26 26 25.1046 26 24V6C26 4.89543 25.1046 4 24 4H6ZM21.483 16.5393C21.6981 16.7053 21.8193 16.9381 21.8465 17.2376H23.7822C23.7768 16.7176 23.642 16.2602 23.3779 15.8654C23.1138 15.4707 22.7422 15.1644 22.263 14.9466C21.7866 14.726 21.2244 14.6158 20.5764 14.6158C19.9421 14.6158 19.3771 14.7247 18.8816 14.9425C18.3861 15.1603 17.9982 15.4639 17.7178 15.8532C17.4373 16.2425 17.2985 16.6958 17.3012 17.2131C17.2985 17.8474 17.5054 18.3511 17.9219 18.7241C18.3385 19.0944 18.9089 19.3625 19.6331 19.5286L20.507 19.7328C20.8119 19.8036 21.0624 19.8812 21.2584 19.9656C21.4572 20.0472 21.6042 20.1453 21.6995 20.2596C21.7948 20.3712 21.8438 20.506 21.8465 20.6639C21.8438 20.8327 21.7907 20.9824 21.6872 21.1131C21.5838 21.2438 21.4354 21.3459 21.2421 21.4194C21.0515 21.4929 20.8201 21.5297 20.5478 21.5297C20.2511 21.5297 19.9897 21.4834 19.7637 21.3908C19.5405 21.2983 19.3649 21.1621 19.2369 20.9824C19.109 20.8028 19.0368 20.5781 19.0205 20.3086H17.0848C17.0929 20.962 17.2413 21.5024 17.5299 21.9299C17.8185 22.3573 18.2228 22.6759 18.7428 22.8855C19.2628 23.0951 19.8726 23.1999 20.5723 23.1999C21.2693 23.1999 21.8642 23.0992 22.357 22.8977C22.8525 22.6963 23.2323 22.4063 23.4963 22.0279C23.7604 21.6495 23.8938 21.1962 23.8966 20.668C23.8938 20.3331 23.8367 20.0309 23.725 19.7614C23.6134 19.4918 23.4487 19.2536 23.2309 19.0467C23.0158 18.8398 22.749 18.6615 22.4305 18.5117C22.1146 18.362 21.7498 18.2422 21.336 18.1524L20.6173 17.989C20.4267 17.9482 20.2552 17.9005 20.1027 17.8461C19.9502 17.7916 19.8195 17.729 19.7106 17.6582C19.6045 17.5847 19.5228 17.5003 19.4656 17.405C19.4112 17.3097 19.3867 17.1995 19.3921 17.0742C19.3948 16.9218 19.4398 16.787 19.5269 16.6699C19.614 16.5501 19.7447 16.4562 19.9189 16.3882C20.0932 16.3201 20.311 16.2861 20.5723 16.2861C20.9671 16.2861 21.2707 16.3705 21.483 16.5393ZM8.23438 14.7301V16.3718H10.7745V23.0938H12.7674V16.3718H15.3034V14.7301H8.23438Z" fill="black"/>
</svg>
